<svg width="32" height="32" viewBox="0 0 32 32" fill="none" xmlns="http://www.w3.org/2000/svg">
<path fill-rule="evenodd" clip-rule="evenodd" d="M16 32C24.8366 32 32 24.8366 32 16C32 7.16344 24.8366 0 16 0C7.16344 0 0 7.16344 0 16C0 24.8366 7.16344 32 16 32Z" fill="black"/>
<path d="M13.0619 24.7273C14.6516 24.7273 15.9419 23.424 15.9419 21.8182V18.9091H13.0619C11.4721 18.9091 10.1819 20.2124 10.1819 21.8182C10.1819 23.424 11.4721 24.7273 13.0619 24.7273Z" fill="#0ACF83"/>
<path d="M10.1819 16C10.1819 14.3942 11.4721 13.0909 13.0619 13.0909H15.9419V18.9091H13.0619C11.4721 18.9091 10.1819 17.6058 10.1819 16Z" fill="#A259FF"/>
<path d="M10.1818 10.1818C10.1818 8.57598 11.4721 7.27271 13.0618 7.27271H15.9418V13.0909H13.0618C11.4721 13.0909 10.1818 11.7876 10.1818 10.1818Z" fill="#F24E1E"/>
<path d="M15.9419 7.27271H18.8219C20.4117 7.27271 21.7019 8.57598 21.7019 10.1818C21.7019 11.7876 20.4117 13.0909 18.8219 13.0909H15.9419V7.27271Z" fill="#FF7262"/>
<path d="M21.7019 16C21.7019 17.6058 20.4117 18.9091 18.8219 18.9091C17.2321 18.9091 15.9419 17.6058 15.9419 16C15.9419 14.3942 17.2321 13.0909 18.8219 13.0909C20.4117 13.0909 21.7019 14.3942 21.7019 16Z" fill="#1ABCFE"/>
</svg>
