<svg width="34" height="34" viewBox="0 0 34 34" fill="none" xmlns="http://www.w3.org/2000/svg">
<circle cx="17" cy="17" r="16" stroke="url(#paint0_linear_2235_3007)"/>
<path d="M11.6323 24.7871H21.542C22.582 24.7871 23.1899 24.1938 23.1899 23.1685V16.1299L24.208 16.9868C24.3545 17.1113 24.5229 17.2212 24.728 17.2212C25.0723 17.2212 25.3506 17.0088 25.3506 16.6572C25.3506 16.4375 25.2773 16.291 25.1235 16.1592L23.1899 14.5332V11.501C23.1899 11.1787 22.9849 10.9736 22.6626 10.9736H21.8789C21.564 10.9736 21.3516 11.1787 21.3516 11.501V12.9878L17.499 9.75049C16.957 9.28906 16.2832 9.28906 15.7339 9.75049L8.10205 16.1592C7.94092 16.291 7.86768 16.4668 7.86768 16.6353C7.86768 16.9355 8.10205 17.2212 8.49756 17.2212C8.70264 17.2212 8.87109 17.1113 9.0249 16.9868L9.97705 16.1812V23.1685C9.97705 24.1938 10.585 24.7871 11.6323 24.7871ZM18.7222 18.7007C18.7222 18.3638 18.5024 18.144 18.1655 18.144H15.0601C14.7158 18.144 14.4961 18.3638 14.4961 18.7007V23.6079H11.8813C11.4126 23.6079 11.1562 23.3442 11.1562 22.8682V15.1924L16.3564 10.8345C16.5176 10.688 16.7153 10.688 16.8765 10.8345L22.0107 15.1411V22.8682C22.0107 23.3442 21.7544 23.6079 21.293 23.6079H18.7222V18.7007Z" fill="white"/>
<defs>
<linearGradient id="paint0_linear_2235_3007" x1="6.2" y1="5" x2="29.4" y2="25.8" gradientUnits="userSpaceOnUse">
<stop stop-color="#C427FB"/>
<stop offset="1" stop-color="#22D7FF"/>
</linearGradient>
</defs>
</svg>
