<svg width="36" height="37" viewBox="0 0 36 37" fill="none" xmlns="http://www.w3.org/2000/svg">
<rect y="0.5" width="36" height="36" rx="18" fill="white"/>
<rect width="18" height="18" transform="translate(9 9.5)" fill="white"/>
<path d="M26.7323 13.2028C26.106 13.4803 25.4333 13.6678 24.726 13.7525C25.4475 13.3205 26.001 12.635 26.262 11.819C25.587 12.2195 24.8393 12.5105 24.0435 12.6665C23.406 11.9885 22.4985 11.564 21.4935 11.564C19.5645 11.564 18 13.1285 18 15.059C18 15.332 18.0315 15.5975 18.09 15.854C15.1853 15.7078 12.612 14.3165 10.8885 12.203C10.5885 12.7205 10.416 13.3205 10.416 13.9595C10.416 15.1715 11.0333 16.2418 11.97 16.868C11.397 16.8493 10.8585 16.6925 10.3875 16.4308V16.4758C10.3875 18.1685 11.5913 19.5808 13.1903 19.9018C12.8963 19.9813 12.588 20.0233 12.27 20.0233C12.045 20.0233 11.8253 20.0023 11.6123 19.9618C12.057 21.3493 13.347 22.3603 14.8763 22.3873C13.68 23.3248 12.1733 23.8835 10.5368 23.8835C10.2548 23.8835 9.97651 23.867 9.70276 23.8348C11.2493 24.827 13.0853 25.4045 15.0578 25.4045C21.4853 25.4045 24.999 20.081 24.999 15.464C24.999 15.314 24.9953 15.1625 24.9885 15.0125C25.671 14.519 26.2635 13.9048 26.7308 13.205L26.7323 13.2028Z" fill="#1B97F0"/>
</svg>
